<?xml version="1.0" ?><svg enable-background="new 0 0 32 32" version="1.1" viewBox="0 0 32 32" xml:space="preserve" xmlns="http://www.w3.org/2000/svg" xmlns:xlink="http://www.w3.org/1999/xlink"><g id="Flat_copy_6"><g><path d="M28,32H4c-2.2,0-4-1.8-4-4V4c0-2.2,1.8-4,4-4h24c2.2,0,4,1.8,4,4v24C32,30.2,30.2,32,28,32z" fill="#CCCCCC"/><path d="M28,29.833H4c-2.2,0-4-1.8-4-4V4c0-2.2,1.8-4,4-4h24c2.2,0,4,1.8,4,4v21.833C32,28.033,30.2,29.833,28,29.833z"/><g><defs><path d="M28,29.833H4c-2.2,0-4-1.8-4-4V4c0-2.2,1.8-4,4-4h24c2.2,0,4,1.8,4,4v21.833      C32,28.033,30.2,29.833,28,29.833z" id="SVGID_301_"/></defs><clipPath id="SVGID_8_"><use overflow="visible" xlink:href="#SVGID_301_"/></clipPath><g clip-path="url(#SVGID_8_)"><polygon fill="#FFFFFF" opacity="0.25" points="0,22.175 32,10.923 32,0 0,0     "/></g></g></g><path d="M21.705,22.566h2.942c0-8.434-6.861-15.3-15.294-15.3V10.2C16.163,10.199,21.705,15.748,21.705,22.566z    M11.39,22.571c1.128,0,2.039-0.906,2.039-2.029c0-1.117-0.911-2.033-2.039-2.033c-1.123,0-2.036,0.916-2.036,2.033   C9.353,21.665,10.266,22.571,11.39,22.571z M16.506,22.567L16.506,22.567h2.945c0-5.57-4.531-10.101-10.099-10.101v2.933   c1.91,0,3.705,0.746,5.057,2.1C15.761,18.847,16.506,20.65,16.506,22.567z" fill="#FFFFFF"/></g></svg>